<?xml version="1.0" encoding="iso-8859-1"?>
<!-- Uploaded to: SVG Repo, www.svgrepo.com, Generator: SVG Repo Mixer Tools -->
<svg fill="#000000" height="800px" width="800px" version="1.1" id="Layer_1" xmlns="http://www.w3.org/2000/svg" xmlns:xlink="http://www.w3.org/1999/xlink" 
	 viewBox="0 0 512 512" xml:space="preserve">
<g transform="translate(1 1)">
	<g>
		<g>
			<path d="M255,127C255,56.173,197.827-1,127-1S-1,56.173-1,127s57.173,128,128,128S255,197.827,255,127z M16.067,127
				C16.067,65.56,65.56,16.067,127,16.067S237.933,65.56,237.933,127S188.44,237.933,127,237.933S16.067,188.44,16.067,127z"/>
			<path d="M383,118.467c28.16,0,51.2-23.04,51.2-51.2c0-28.16-23.04-51.2-51.2-51.2c-28.16,0-51.2,23.04-51.2,51.2
				C331.8,95.427,354.84,118.467,383,118.467z M383,33.133c18.773,0,34.133,15.36,34.133,34.133S401.773,101.4,383,101.4
				c-18.773,0-34.133-15.36-34.133-34.133S364.227,33.133,383,33.133z"/>
			<path d="M505.88,42.52c-3.413-1.707-6.827-0.853-9.387,1.707L388.264,151.66c-7.936-10.402-19.265-17.788-31.717-21.247
				c-31.573-8.533-64,8.533-73.387,39.253l-32.639,104.748l-6.615-6.615c-3.413-3.413-8.533-3.413-11.947,0l-23.893,23.893
				c-3.413,3.413-3.413,8.533,0,11.947l9.011,9.011l-81.544-9.864c-12.8-1.707-24.747,6.827-28.16,18.773L68.12,466.627
				c-2.56,9.387-0.853,19.627,4.267,28.16c5.973,7.68,14.507,13.653,23.893,15.36C98.84,511,100.547,511,102.253,511
				c14.507,0,28.16-9.387,33.28-24.747l31.573-100.693c0.853-4.267,5.12-6.827,9.387-5.973l127.524,20.004l108.85,108.85
				c1.707,1.707,3.413,2.56,5.973,2.56c1.707,0,4.267-0.853,5.973-2.56l23.893-23.893c3.413-3.413,3.413-8.533,0-11.947
				L347.508,371.401l48.914-159.572L508.44,103.96c1.707-1.707,2.56-3.413,2.56-5.973V50.2C511,46.787,509.293,43.373,505.88,42.52z
				 M178.2,362.52c-11.947-1.707-23.893,5.973-28.16,17.92l-31.573,100.693c-2.56,8.533-11.093,13.653-19.627,11.947
				c-5.12-0.853-9.387-3.413-11.947-7.68c-2.56-4.267-3.413-8.533-1.707-14.507l39.253-145.067c0.853-3.413,5.12-5.973,8.533-5.973
				c0,0,0.853,0,0-0.853l103.253,12.8l46.933,46.933L178.2,362.52z M418.84,490.52L225.987,297.667l11.947-11.947l10.24,10.24l0,0
				l82.773,82.773c0,0,0,0,0,0l99.84,99.84L418.84,490.52z M263.533,287.427l34.987-112.64c6.827-22.187,29.867-34.133,52.053-28.16
				c11.947,2.56,20.48,10.24,26.453,20.48c5.973,10.24,6.827,22.187,3.413,33.28l-47.787,156.16L263.533,287.427z M493.933,94.573
				l-93.442,90.044c-0.191-2.772-0.561-5.534-1.129-8.273c-0.47-2.731-1.217-5.462-2.298-8.193c-0.126-0.356-0.259-0.71-0.392-1.065
				l97.26-96.407V94.573z"/>
		</g>
	</g>
</g>
</svg>